<svg width="100%" viewBox="134 71 686 484" xmlns="http://www.w3.org/2000/svg">

  <!-- Тело/торс -->
  <ellipse fill="#87562b" stroke="#000000" stroke-width="3" cx="478.07" cy="337.01" rx="141.79" ry="203.54" style="fill:rgb(135, 86, 43);stroke:rgb(0, 0, 0);color:rgb(255, 255, 255);stroke-width:3px;stroke-linecap:butt;stroke-linejoin:miter;opacity:1;font-family:&quot;Anthropic Sans&quot;, -apple-system, BlinkMacSystemFont, &quot;Segoe UI&quot;, sans-serif;font-size:16px;font-weight:400;text-anchor:start;dominant-baseline:auto"/>

  <!-- Голова/шляпа -->
  <ellipse fill="#d3b480" stroke="#000000" stroke-width="5" cx="478.07" cy="181.50" rx="224.13" ry="96.05" style="fill:rgb(211, 180, 128);stroke:rgb(0, 0, 0);color:rgb(255, 255, 255);stroke-width:5px;stroke-linecap:butt;stroke-linejoin:miter;opacity:1;font-family:&quot;Anthropic Sans&quot;, -apple-system, BlinkMacSystemFont, &quot;Segoe UI&quot;, sans-serif;font-size:16px;font-weight:400;text-anchor:start;dominant-baseline:auto"/>

  <!-- Светлая деталь на шляпе -->
  <ellipse fill="#efe8d4" stroke="#000000" stroke-width="4" cx="478.07" cy="142.62" rx="38.88" ry="25.16" style="fill:rgb(239, 232, 212);stroke:rgb(0, 0, 0);color:rgb(255, 255, 255);stroke-width:4px;stroke-linecap:butt;stroke-linejoin:miter;opacity:1;font-family:&quot;Anthropic Sans&quot;, -apple-system, BlinkMacSystemFont, &quot;Segoe UI&quot;, sans-serif;font-size:16px;font-weight:400;text-anchor:start;dominant-baseline:auto"/>

  <!-- Палочки на шляпе -->
  <line fill="none" stroke="#000000" stroke-width="5" x1="252.80" y1="195.22" x2="438.05" y2="151.77" style="fill:none;stroke:rgb(0, 0, 0);color:rgb(255, 255, 255);stroke-width:5px;stroke-linecap:butt;stroke-linejoin:miter;opacity:1;font-family:&quot;Anthropic Sans&quot;, -apple-system, BlinkMacSystemFont, &quot;Segoe UI&quot;, sans-serif;font-size:16px;font-weight:400;text-anchor:start;dominant-baseline:auto"/>
  <line fill="none" stroke="#000000" stroke-width="5" x1="518.09" y1="142.62" x2="698.77" y2="195.22" style="fill:none;stroke:rgb(0, 0, 0);color:rgb(255, 255, 255);stroke-width:5px;stroke-linecap:butt;stroke-linejoin:miter;opacity:1;font-family:&quot;Anthropic Sans&quot;, -apple-system, BlinkMacSystemFont, &quot;Segoe UI&quot;, sans-serif;font-size:16px;font-weight:400;text-anchor:start;dominant-baseline:auto"/>
  <line fill="none" stroke="#000000" stroke-width="5" x1="451.77" y1="165.49" x2="380.87" y2="266.12" style="fill:none;stroke:rgb(0, 0, 0);color:rgb(255, 255, 255);stroke-width:5px;stroke-linecap:butt;stroke-linejoin:miter;opacity:1;font-family:&quot;Anthropic Sans&quot;, -apple-system, BlinkMacSystemFont, &quot;Segoe UI&quot;, sans-serif;font-size:16px;font-weight:400;text-anchor:start;dominant-baseline:auto"/>
  <line fill="none" stroke="#000000" stroke-width="5" x1="492.94" y1="165.49" x2="605.00" y2="256.97" style="fill:none;stroke:rgb(0, 0, 0);color:rgb(255, 255, 255);stroke-width:5px;stroke-linecap:butt;stroke-linejoin:miter;opacity:1;font-family:&quot;Anthropic Sans&quot;, -apple-system, BlinkMacSystemFont, &quot;Segoe UI&quot;, sans-serif;font-size:16px;font-weight:400;text-anchor:start;dominant-baseline:auto"/>
  <line fill="none" stroke="#000000" stroke-width="5" x1="449.48" y1="124.32" x2="348.86" y2="101.45" style="fill:none;stroke:rgb(0, 0, 0);color:rgb(255, 255, 255);stroke-width:5px;stroke-linecap:butt;stroke-linejoin:miter;opacity:1;font-family:&quot;Anthropic Sans&quot;, -apple-system, BlinkMacSystemFont, &quot;Segoe UI&quot;, sans-serif;font-size:16px;font-weight:400;text-anchor:start;dominant-baseline:auto"/>
  <line fill="none" stroke="#000000" stroke-width="5" x1="504.37" y1="122.04" x2="556.97" y2="92.31" style="fill:none;stroke:rgb(0, 0, 0);color:rgb(255, 255, 255);stroke-width:5px;stroke-linecap:butt;stroke-linejoin:miter;opacity:1;font-family:&quot;Anthropic Sans&quot;, -apple-system, BlinkMacSystemFont, &quot;Segoe UI&quot;, sans-serif;font-size:16px;font-weight:400;text-anchor:start;dominant-baseline:auto"/>

  <!-- Левый глаз -->
  <ellipse fill="#000000" stroke="#000000" stroke-width="5" cx="422.04" cy="332.44" rx="16.01" ry="29.73" style="fill:rgb(0, 0, 0);stroke:rgb(0, 0, 0);color:rgb(255, 255, 255);stroke-width:5px;stroke-linecap:butt;stroke-linejoin:miter;opacity:1;font-family:&quot;Anthropic Sans&quot;, -apple-system, BlinkMacSystemFont, &quot;Segoe UI&quot;, sans-serif;font-size:16px;font-weight:400;text-anchor:start;dominant-baseline:auto"/>

  <!-- Правый глаз -->
  <ellipse fill="#000000" stroke="#000000" stroke-width="5" cx="530.67" cy="332.44" rx="16.22" ry="29.73" style="fill:rgb(0, 0, 0);stroke:rgb(0, 0, 0);color:rgb(255, 255, 255);stroke-width:5px;stroke-linecap:butt;stroke-linejoin:miter;opacity:1;font-family:&quot;Anthropic Sans&quot;, -apple-system, BlinkMacSystemFont, &quot;Segoe UI&quot;, sans-serif;font-size:16px;font-weight:400;text-anchor:start;dominant-baseline:auto"/>

  <!-- Рот / улыбка -->
  <path fill="none" stroke="#000000" stroke-width="5" d="M401.46,426.21 C401.65,428.04 402.64,429.65 403.97,431.01 C405.11,432.16 406.72,433.35 407.67,434.90 C408.65,436.51 409.78,437.58 411.29,438.45 C412.97,439.42 414.72,439.93 416.55,439.93 C418.38,439.93 420.51,439.43 421.85,440.58 C423.12,441.66 424.56,442.21 426.16,442.21 C428.22,442.21 430.04,442.21 431.87,442.21 C433.70,442.21 435.31,442.21 437.36,442.21 C439.19,442.21 441.02,442.21 442.85,442.21 C444.45,442.21 445.98,441.71 447.39,440.58 C448.76,439.47 450.52,439.59 451.89,438.45 C453.19,437.37 455.65,437.93 456.30,436.45 C457.09,434.63 457.39,433.21 458.57,432.09 C459.87,430.87 460.64,429.13 462.32,428.52 C463.99,427.90 465.45,427.50 465.49,425.52 C465.53,423.69 466.20,422.45 467.50,421.13 C468.69,419.92 469.61,418.58 470.45,417.06 C471.24,415.62 473.36,414.96 474.58,413.80 C475.76,412.68 477.61,412.48 479.44,412.48 C481.04,412.48 482.60,412.02 483.98,410.85 C485.17,409.84 487.22,410.20 489.28,410.20 C491.11,410.20 492.94,410.16 494.54,410.20 C496.52,410.24 497.45,411.66 498.32,413.17 C499.29,414.85 498.95,416.60 499.88,418.35 C500.65,419.79 503.52,418.90 504.29,420.34 C505.22,422.09 504.37,424.15 504.37,425.75 C504.37,427.58 504.42,429.59 505.52,430.78 C506.72,432.09 507.70,433.39 509.07,434.55 C510.36,435.64 512.22,435.52 513.58,436.67 C514.83,437.73 516.72,437.64 518.55,437.64 C520.38,437.64 522.40,436.93 523.96,437.72 C525.55,438.54 526.43,439.92 528.35,439.93 C529.93,439.94 532.08,439.93 534.10,439.93 C535.70,439.93 537.53,439.93 539.36,439.93 C541.19,439.93 543.25,439.93 544.71,439.93 C546.64,439.93 548.22,439.93 550.37,439.93 C552.40,439.93 554.00,439.93 555.83,439.93 C557.66,439.93 559.81,440.56 561.27,439.42 C562.72,438.29 563.37,436.77 564.64,435.47 C565.79,434.30 566.12,432.61 566.63,431.06 L568.41,430.78 L570.31,430.40 L570.69,428.95" style="fill:none;stroke:rgb(0, 0, 0);color:rgb(255, 255, 255);stroke-width:5px;stroke-linecap:butt;stroke-linejoin:miter;opacity:1;font-family:&quot;Anthropic Sans&quot;, -apple-system, BlinkMacSystemFont, &quot;Segoe UI&quot;, sans-serif;font-size:16px;font-weight:400;text-anchor:start;dominant-baseline:auto"/>

  <!-- Нос -->
  <path fill="none" stroke="#000000" stroke-width="5" d="M456.35,458.22 C456.85,460.23 457.74,461.61 459.28,462.60 C460.86,463.62 462.75,462.80 464.58,462.80 C466.41,462.80 468.24,462.80 470.30,462.80 C471.90,462.80 473.73,462.80 475.56,462.80 C477.39,462.80 479.44,462.80 481.04,462.80 C482.87,462.80 484.70,462.80 486.53,462.80 C488.59,462.80 490.19,462.80 492.02,462.80 C493.85,462.80 496.34,463.19 497.23,461.79 C498.12,460.39 498.31,458.35 500.26,458.22 C502.08,458.10 503.88,459.01 505.66,458.14 C507.12,457.43 508.06,455.96 509.86,455.94 L511.91,455.93" style="fill:none;stroke:rgb(0, 0, 0);color:rgb(255, 255, 255);stroke-width:5px;stroke-linecap:butt;stroke-linejoin:miter;opacity:1;font-family:&quot;Anthropic Sans&quot;, -apple-system, BlinkMacSystemFont, &quot;Segoe UI&quot;, sans-serif;font-size:16px;font-weight:400;text-anchor:start;dominant-baseline:auto"/>

</svg>